<svg xmlns="http://www.w3.org/2000/svg" viewBox="0 0 1600 1100" fill="none">
  <defs>
    <radialGradient id="bgGlowA" cx="0" cy="0" r="1" gradientUnits="userSpaceOnUse" gradientTransform="translate(320 220) rotate(41.6335) scale(478.502 478.502)">
      <stop stop-color="#6EE7FF" stop-opacity=".45"/>
      <stop offset="1" stop-color="#6EE7FF" stop-opacity="0"/>
    </radialGradient>
    <radialGradient id="bgGlowB" cx="0" cy="0" r="1" gradientUnits="userSpaceOnUse" gradientTransform="translate(1180 240) rotate(90) scale(330 420)">
      <stop stop-color="#FF7DCB" stop-opacity=".28"/>
      <stop offset="1" stop-color="#FF7DCB" stop-opacity="0"/>
    </radialGradient>
    <radialGradient id="bgGlowC" cx="0" cy="0" r="1" gradientUnits="userSpaceOnUse" gradientTransform="translate(1120 760) rotate(125) scale(420 420)">
      <stop stop-color="#FFB86F" stop-opacity=".26"/>
      <stop offset="1" stop-color="#FFB86F" stop-opacity="0"/>
    </radialGradient>
    <linearGradient id="beam" x1="288" x2="1303" y1="205" y2="827" gradientUnits="userSpaceOnUse">
      <stop stop-color="#6EFED1"/>
      <stop offset=".42" stop-color="#76B8FF"/>
      <stop offset="1" stop-color="#FF7DCB"/>
    </linearGradient>
    <linearGradient id="surface" x1="310" x2="1200" y1="260" y2="818" gradientUnits="userSpaceOnUse">
      <stop stop-color="#101733"/>
      <stop offset="1" stop-color="#070C1C"/>
    </linearGradient>
    <linearGradient id="rack" x1="0" x2="1" y1="0" y2="1">
      <stop stop-color="#18244C"/>
      <stop offset="1" stop-color="#0B1023"/>
    </linearGradient>
    <filter id="blur40" x="-100" y="-100" width="1800" height="1300" filterUnits="userSpaceOnUse">
      <feGaussianBlur stdDeviation="40"/>
    </filter>
    <filter id="blur12" x="-50" y="-50" width="1700" height="1200" filterUnits="userSpaceOnUse">
      <feGaussianBlur stdDeviation="12"/>
    </filter>
  </defs>

  <rect width="1600" height="1100" fill="#070B1B"/>
  <g opacity=".95">
    <rect width="1600" height="1100" fill="url(#bgGlowA)"/>
    <rect width="1600" height="1100" fill="url(#bgGlowB)"/>
    <rect width="1600" height="1100" fill="url(#bgGlowC)"/>
  </g>

  <g opacity=".16">
    <path d="M0 920H1600" stroke="#75B8FF"/>
    <path d="M0 840H1600" stroke="#75B8FF"/>
    <path d="M0 760H1600" stroke="#75B8FF"/>
    <path d="M0 680H1600" stroke="#75B8FF"/>
    <path d="M0 600H1600" stroke="#75B8FF"/>
    <path d="M0 520H1600" stroke="#75B8FF"/>
    <path d="M0 440H1600" stroke="#75B8FF"/>
    <path d="M0 360H1600" stroke="#75B8FF"/>
    <path d="M200 0V1100" stroke="#75B8FF"/>
    <path d="M360 0V1100" stroke="#75B8FF"/>
    <path d="M520 0V1100" stroke="#75B8FF"/>
    <path d="M680 0V1100" stroke="#75B8FF"/>
    <path d="M840 0V1100" stroke="#75B8FF"/>
    <path d="M1000 0V1100" stroke="#75B8FF"/>
    <path d="M1160 0V1100" stroke="#75B8FF"/>
    <path d="M1320 0V1100" stroke="#75B8FF"/>
  </g>

  <g filter="url(#blur40)" opacity=".8">
    <circle cx="802" cy="496" r="150" fill="#76B8FF"/>
    <circle cx="803" cy="497" r="110" fill="#6EFED1"/>
  </g>

  <g stroke="url(#beam)" stroke-width="2.5" opacity=".75">
    <path d="M405 330C532 356 653 398 803 496"/>
    <path d="M1190 366C1083 387 939 420 803 496"/>
    <path d="M534 794C630 706 723 611 803 496"/>
    <path d="M1082 790C981 703 885 620 803 496"/>
    <path d="M803 496L803 262"/>
    <path d="M803 496L803 854"/>
  </g>

  <g opacity=".7">
    <circle cx="803" cy="496" r="228" stroke="#6EFED1" stroke-opacity=".35" stroke-width="2">
      <animateTransform attributeName="transform" type="rotate" from="0 803 496" to="360 803 496" dur="24s" repeatCount="indefinite"/>
    </circle>
    <circle cx="803" cy="496" r="310" stroke="#76B8FF" stroke-opacity=".22" stroke-width="2" stroke-dasharray="20 14">
      <animateTransform attributeName="transform" type="rotate" from="360 803 496" to="0 803 496" dur="30s" repeatCount="indefinite"/>
    </circle>
    <circle cx="803" cy="496" r="118" stroke="#FFB86F" stroke-opacity=".36" stroke-width="2" stroke-dasharray="8 10">
      <animateTransform attributeName="transform" type="rotate" from="0 803 496" to="-360 803 496" dur="18s" repeatCount="indefinite"/>
    </circle>
  </g>

  <g opacity=".95">
    <path d="M594 308L723 382" stroke="#6EFED1" stroke-width="3"/>
    <path d="M1004 322L884 383" stroke="#76B8FF" stroke-width="3"/>
    <path d="M596 700L723 607" stroke="#FFB86F" stroke-width="3"/>
    <path d="M1001 700L883 606" stroke="#FF7DCB" stroke-width="3"/>
  </g>

  <g>
    <g transform="translate(345 262)">
      <rect width="124" height="150" rx="26" fill="url(#rack)" stroke="#6EFED1" stroke-opacity=".28"/>
      <rect x="24" y="28" width="76" height="10" rx="5" fill="#6EFED1" fill-opacity=".65"/>
      <rect x="24" y="54" width="56" height="10" rx="5" fill="#76B8FF" fill-opacity=".45"/>
      <rect x="24" y="80" width="62" height="10" rx="5" fill="#FFB86F" fill-opacity=".4"/>
      <rect x="24" y="106" width="44" height="10" rx="5" fill="#FF7DCB" fill-opacity=".48"/>
      <circle cx="100" cy="116" r="7" fill="#6EFED1">
        <animate attributeName="opacity" values=".4;1;.4" dur="2.2s" repeatCount="indefinite"/>
      </circle>
    </g>
    <g transform="translate(1123 300)">
      <rect width="132" height="158" rx="26" fill="url(#rack)" stroke="#76B8FF" stroke-opacity=".28"/>
      <rect x="24" y="26" width="84" height="10" rx="5" fill="#76B8FF" fill-opacity=".65"/>
      <rect x="24" y="52" width="65" height="10" rx="5" fill="#6EFED1" fill-opacity=".45"/>
      <rect x="24" y="78" width="72" height="10" rx="5" fill="#FF7DCB" fill-opacity=".5"/>
      <rect x="24" y="104" width="50" height="10" rx="5" fill="#FFB86F" fill-opacity=".42"/>
      <circle cx="104" cy="116" r="7" fill="#76B8FF">
        <animate attributeName="opacity" values=".35;1;.35" dur="2.6s" repeatCount="indefinite"/>
      </circle>
    </g>
    <g transform="translate(474 758)">
      <rect width="136" height="160" rx="26" fill="url(#rack)" stroke="#FFB86F" stroke-opacity=".28"/>
      <rect x="24" y="24" width="72" height="10" rx="5" fill="#FFB86F" fill-opacity=".65"/>
      <rect x="24" y="50" width="82" height="10" rx="5" fill="#6EFED1" fill-opacity=".48"/>
      <rect x="24" y="76" width="52" height="10" rx="5" fill="#76B8FF" fill-opacity=".4"/>
      <circle cx="106" cy="118" r="7" fill="#FFB86F">
        <animate attributeName="opacity" values=".35;1;.35" dur="2.3s" repeatCount="indefinite"/>
      </circle>
    </g>
    <g transform="translate(1003 760)">
      <rect width="146" height="170" rx="28" fill="url(#rack)" stroke="#FF7DCB" stroke-opacity=".28"/>
      <rect x="26" y="26" width="86" height="10" rx="5" fill="#FF7DCB" fill-opacity=".68"/>
      <rect x="26" y="52" width="68" height="10" rx="5" fill="#76B8FF" fill-opacity=".45"/>
      <rect x="26" y="78" width="78" height="10" rx="5" fill="#6EFED1" fill-opacity=".42"/>
      <circle cx="112" cy="122" r="7" fill="#FF7DCB">
        <animate attributeName="opacity" values=".35;1;.35" dur="2.8s" repeatCount="indefinite"/>
      </circle>
    </g>
  </g>

  <g transform="translate(803 496)">
    <circle r="92" fill="url(#surface)" stroke="url(#beam)" stroke-width="2.5"/>
    <circle r="52" fill="#0D132D" stroke="#6EFED1" stroke-opacity=".42" stroke-width="2"/>
    <path d="M-16 -20L22 -20L22 -2H-16V-20Z" fill="#6EFED1" fill-opacity=".75"/>
    <path d="M-26 5H26V28H-26V5Z" fill="#76B8FF" fill-opacity=".48"/>
    <path d="M-10 -45L10 -45L10 -32H-10V-45Z" fill="#FFB86F" fill-opacity=".75"/>
    <circle cx="0" cy="0" r="122" stroke="#76B8FF" stroke-opacity=".18" stroke-width="1.5" stroke-dasharray="6 10">
      <animateTransform attributeName="transform" type="rotate" from="0" to="360" dur="14s" repeatCount="indefinite"/>
    </circle>
  </g>

  <g filter="url(#blur12)">
    <path d="M468 339L803 496L1132 345" stroke="url(#beam)" stroke-width="12" stroke-linecap="round" opacity=".5"/>
    <path d="M568 773L803 496L1057 775" stroke="url(#beam)" stroke-width="12" stroke-linecap="round" opacity=".35"/>
  </g>

  <g opacity=".9">
    <circle cx="405" cy="330" r="14" fill="#6EFED1"/>
    <circle cx="1190" cy="366" r="14" fill="#76B8FF"/>
    <circle cx="534" cy="794" r="14" fill="#FFB86F"/>
    <circle cx="1082" cy="790" r="14" fill="#FF7DCB"/>
    <circle cx="803" cy="262" r="13" fill="#76B8FF"/>
    <circle cx="803" cy="854" r="13" fill="#6EFED1"/>
  </g>
</svg>
